{
	"asset":{
		"generator":"Khronos glTF Blender I/O v4.2.60",
		"version":"2.0"
	},
	"extensionsUsed":[
		"KHR_materials_sheen"
	],
	"scene":0,
	"scenes":[
		{
			"name":"Scene",
			"nodes":[
				0,
				1
			]
		}
	],
	"nodes":[
		{
			"mesh":0,
			"name":"Plane.003",
			"rotation":[
				0.7071068286895752,
				0,
				0,
				0.7071068286895752
			],
			"scale":[
				0.28725409507751465,
				1,
				0.4153992533683777
			],
			"translation":[
				0.03414663299918175,
				0.02786918543279171,
				0.01941618323326111
			]
		},
		{
			"mesh":1,
			"name":"Plane.004",
			"rotation":[
				0.7071068286895752,
				0,
				0,
				0.7071068286895752
			],
			"scale":[
				0.23856346309185028,
				0.23856346309185028,
				0.2090025395154953
			],
			"translation":[
				0.03414663299918175,
				0.5823366045951843,
				0.01941618323326111
			]
		}
	],
	"materials":[
		{
			"doubleSided":true,
			"extensions":{
				"KHR_materials_sheen":{
					"sheenColorFactor":[
						1.0,
						1.0,
						1.0
					],
					"sheenRoughnessFactor":0.5
				}
			},
			"name":"Material.005",
			"pbrMetallicRoughness":{
				"baseColorFactor":[
					0.31640103459358215,
					0.3266443610191345,
					0.385954350233078,
					1
				],
				"metallicFactor":0
			}
		},
		{
			"doubleSided":true,
			"extensions":{
				"KHR_materials_sheen":{
					"sheenColorFactor":[
						1.0,
						1.0,
						1.0
					],
					"sheenRoughnessFactor":0.5
				}
			},
			"name":"Material.004",
			"pbrMetallicRoughness":{
				"baseColorFactor":[
					0.20121027529239655,
					0.2573941946029663,
					0.4019702970981598,
					1
				],
				"metallicFactor":0
			}
		}
	],
	"meshes":[
		{
			"name":"Plane.005",
			"primitives":[
				{
					"attributes":{
						"POSITION":0,
						"NORMAL":1,
						"TEXCOORD_0":2
					},
					"indices":3,
					"material":0
				}
			]
		},
		{
			"name":"Plane.001",
			"primitives":[
				{
					"attributes":{
						"POSITION":4,
						"NORMAL":5,
						"TEXCOORD_0":6
					},
					"indices":7,
					"material":1
				}
			]
		}
	],
	"accessors":[
		{
			"bufferView":0,
			"componentType":5126,
			"count":13300,
			"max":[
				0.9053170680999756,
				0.1482113003730774,
				1.6421793699264526
			],
			"min":[
				-0.9137484431266785,
				-0.10095015168190002,
				-0.9155529141426086
			],
			"type":"VEC3"
		},
		{
			"bufferView":1,
			"componentType":5126,
			"count":13300,
			"type":"VEC3"
		},
		{
			"bufferView":2,
			"componentType":5126,
			"count":13300,
			"type":"VEC2"
		},
		{
			"bufferView":3,
			"componentType":5123,
			"count":75264,
			"type":"SCALAR"
		},
		{
			"bufferView":4,
			"componentType":5126,
			"count":2485,
			"max":[
				0.7258257865905762,
				0.7589864134788513,
				1.2180119752883911
			],
			"min":[
				-0.7260662317276001,
				-0.29731008410453796,
				-0.9960164427757263
			],
			"type":"VEC3"
		},
		{
			"bufferView":5,
			"componentType":5126,
			"count":2485,
			"type":"VEC3"
		},
		{
			"bufferView":6,
			"componentType":5126,
			"count":2485,
			"type":"VEC2"
		},
		{
			"bufferView":7,
			"componentType":5123,
			"count":13152,
			"type":"SCALAR"
		}
	],
	"bufferViews":[
		{
			"buffer":0,
			"byteLength":159600,
			"byteOffset":0,
			"target":34962
		},
		{
			"buffer":0,
			"byteLength":159600,
			"byteOffset":159600,
			"target":34962
		},
		{
			"buffer":0,
			"byteLength":106400,
			"byteOffset":319200,
			"target":34962
		},
		{
			"buffer":0,
			"byteLength":150528,
			"byteOffset":425600,
			"target":34963
		},
		{
			"buffer":0,
			"byteLength":29820,
			"byteOffset":576128,
			"target":34962
		},
		{
			"buffer":0,
			"byteLength":29820,
			"byteOffset":605948,
			"target":34962
		},
		{
			"buffer":0,
			"byteLength":19880,
			"byteOffset":635768,
			"target":34962
		},
		{
			"buffer":0,
			"byteLength":26304,
			"byteOffset":655648,
			"target":34963
		}
	],
	"buffers":[
		{
			"byteLength":681952,
			"uri":"%E4%B8%A4%E5%A5%97.bin"
		}
	]
}
